<svg id="Layer_1" data-name="Layer 1" xmlns="http://www.w3.org/2000/svg" viewBox="0 0 200 200"><defs><style>.cls-1{fill:#ff0101;}.cls-2{fill:#0101ff;}.cls-3{fill:#01ff01;}.cls-4{fill:#050505;}.cls-5{fill:none;}</style></defs><path class="cls-1" d="M87.27,76.18a24.66,24.66,0,1,1,24.66,0l-7.42-12.86a9.81,9.81,0,1,0-9.81,0Z" transform="translate(0.13 0)"/><path class="cls-2" d="M140.07,82.14a24.66,24.66,0,1,1-24.65,0L122.84,95a9.81,9.81,0,1,0,9.81,0Z" transform="translate(0.13 0)"/><path class="cls-3" d="M96.64,103.5A24.65,24.65,0,1,1,84.32,82.14L76.89,95a9.81,9.81,0,1,0,4.91,8.5Z" transform="translate(0.13 0)"/><path class="cls-4" d="M46.82,139a31.21,31.21,0,0,1,7.23.13,7.65,7.65,0,0,1,4.15,1.72c1.16,1.29,1.45,3.09,1.7,4.75a45.61,45.61,0,0,1,0,10.38,9.71,9.71,0,0,1-1.59,4.86,7.92,7.92,0,0,1-4.6,1.82,32.64,32.64,0,0,1-7.26.13,10.2,10.2,0,0,1-4.73-1.39A4.61,4.61,0,0,1,40,158.82a23.64,23.64,0,0,1-.83-6.32,42.05,42.05,0,0,1,.59-8.39,6,6,0,0,1,1.74-3.57A10.75,10.75,0,0,1,46.82,139Zm.4,3.84c-1,.16-2.27.24-2.88,1.18a15.68,15.68,0,0,0-.62,4.42,45.54,45.54,0,0,0,.22,7.92c.15.88.46,1.93,1.44,2.19a19,19,0,0,0,6.6.42c1.09-.17,2.55-.26,3.08-1.41a18.77,18.77,0,0,0,.64-5.44,33.34,33.34,0,0,0-.49-7.67c-.15-.89-1.07-1.27-1.85-1.42a22.55,22.55,0,0,0-6.14-.19Zm21.49,4.13a7.9,7.9,0,0,1,5-.92,5.12,5.12,0,0,1,4.16,2.11c1,1.82,1.06,4,1.13,6a15.92,15.92,0,0,1-.94,6.2,4.07,4.07,0,0,1-2.83,2.25,9.34,9.34,0,0,1-5.68-.23,4.94,4.94,0,0,1-2.18-2v9.53H63.25V146.17h4c0,.82-.09,1.63-.11,2.44a7.1,7.1,0,0,1,1.61-1.67ZM70,149.07a2.44,2.44,0,0,0-2.3,1.58,17.38,17.38,0,0,0-.36,5.53c.13,1.2.28,2.75,1.56,3.29a6.62,6.62,0,0,0,4.35.05c1.2-.43,1.38-1.84,1.51-2.94a20.72,20.72,0,0,0-.19-5.45,2.17,2.17,0,0,0-1.15-1.7A7.22,7.22,0,0,0,70,149.07ZM83.85,147a13,13,0,0,1,6.55-1c1.83.15,4.06.46,5.07,2.21,1.13,2.12,1,4.61,1.11,6.93H85.42c.13,1.2,0,2.49.58,3.58a2.94,2.94,0,0,0,2.53,1.1A7.37,7.37,0,0,0,92,159.4c.61-.47.61-1.31.69-2h3.92a5.17,5.17,0,0,1-1.32,3.85c-1.64,1.47-4,1.63-6.09,1.67a11.94,11.94,0,0,1-5.48-1.07c-1.34-.79-1.77-2.42-2-3.86a25.31,25.31,0,0,1-.12-6.45C81.76,149.84,82.22,147.85,83.85,147Zm2.38,2.6c-.85.78-.77,2.07-.81,3.12,2.4,0,4.8,0,7.2,0a5.39,5.39,0,0,0-.42-2.84,3,3,0,0,0-2.23-.81,6.8,6.8,0,0,0-3.74.52Zm19-2.61a7.12,7.12,0,0,1,4.89-.92,5.1,5.1,0,0,1,3.75,1.91,6,6,0,0,1,1,3.52c0,3.75,0,7.48,0,11.23H111c0-3.54,0-7.08,0-10.62a3.32,3.32,0,0,0-.59-2.26,3.26,3.26,0,0,0-2.46-.8,4.43,4.43,0,0,0-3,.9,3.59,3.59,0,0,0-1.09,2.76c0,3.34,0,6.68,0,10H100V146.17h3.81c0,1-.1,1.93-.13,2.9A5.35,5.35,0,0,1,105.27,147Zm16.61-7.23a23.25,23.25,0,0,1,6.65-.9,16.37,16.37,0,0,1,6.45.9,3.89,3.89,0,0,1,2.09,2.4,14.23,14.23,0,0,1,.59,4.86h-4.47a5.77,5.77,0,0,0-.64-3.41,4.49,4.49,0,0,0-2.8-.85,16.23,16.23,0,0,0-5.81.51,1.9,1.9,0,0,0-1.15,1.53,24.53,24.53,0,0,0-.38,5.28,34.15,34.15,0,0,0,.49,7.07,2.08,2.08,0,0,0,1.7,1.56,18.44,18.44,0,0,0,5.55.27c1-.12,2.14-.19,2.74-1.07a6.33,6.33,0,0,0,.51-3.55h4.51a16,16,0,0,1-.73,5.59,3.51,3.51,0,0,1-2,2.07,18.2,18.2,0,0,1-5.82.9,27.06,27.06,0,0,1-6.78-.54,4.74,4.74,0,0,1-3.32-2.23,17.33,17.33,0,0,1-1.1-5.44c-.17-2.43-.28-4.86-.22-7.29a12.16,12.16,0,0,1,1.36-5.76,4.65,4.65,0,0,1,2.59-1.9Zm16.77-.69c1.55,0,3.11,0,4.66,0,1.51,4.8,3.17,9.54,4.7,14.33.59,1.84,1,3.74,1.62,5.57.69-2,1.13-4,1.81-6,1.49-4.63,3-9.25,4.51-13.88,1.53-.07,3.07,0,4.61,0v.51c-2.53,7.7-5,15.41-7.47,23.13-2.31,0-4.62.05-6.93,0-2.46-7.89-5-15.74-7.51-23.62Z" transform="translate(0.13 0)"/><rect class="cls-5" width="200" height="200"/></svg>